Coordinates
version=1
nRows=26
nColumns=22
inDegrees=yes

Units are S.I. units (second, meters, Newtons, ...)
If the header above contains a line with 'inDegrees', this indicates whether rotational values are in degrees (yes) or radians (no).

endheader
time	pelvis_tilt	pelvis_list	pelvis_rotation	pelvis_tx	pelvis_ty	pelvis_tz	hip_flexion_r	hip_adduction_r	hip_rotation_r	knee_angle_r	ankle_angle_r	subtalar_angle_r	hip_flexion_l	hip_adduction_l	hip_rotation_l	knee_angle_l	ankle_angle_l	subtalar_angle_l	lumbar_extension	lumbar_bending	lumbar_rotation
      2.63000000	      1.71127715	      5.18039534	     92.39197888	      0.48261289	      0.93477002	     -0.64773171	     -3.10713749	      1.75547413	     -3.11670434	    -10.75551999	      4.46277987	      4.83276449	     -5.48287982	     -5.72774101	     -9.45851832	     -5.71705577	      4.87571955	      2.23246580	     -4.91005300	     -2.10907721	      0.75082815
      2.64000000	      1.73268882	      5.03393830	     92.40715710	      0.48207580	      0.93462556	     -0.64819260	     -2.91364168	      1.73501401	     -3.30415044	    -10.87651544	      4.47754223	      4.82260374	     -5.17435820	     -5.73425947	     -9.42742347	     -6.06599958	      5.03099598	      2.16066765	     -4.80802061	     -2.07459513	      0.67799629
      2.65000000	      1.75145731	      4.88781626	     92.41426529	      0.48152161	      0.93448928	     -0.64860876	     -2.72990051	      1.70909317	     -3.46532252	    -10.97402590	      4.47738137	      4.82541920	     -4.84907453	     -5.73669244	     -9.41344774	     -6.44396212	      5.18005287	      2.08477121	     -4.71108347	     -2.03449923	      0.62050663
      2.66000000	      1.77088937	      4.75301471	     92.40533673	      0.48096619	      0.93437155	     -0.64900106	     -2.57517583	      1.68147839	     -3.59781118	    -11.03462288	      4.47058840	      4.84077270	     -4.53382635	     -5.73820981	     -9.42323184	     -6.82881071	      5.32532320	      2.01028288	     -4.62913523	     -1.98810401	      0.58915962
      2.67000000	      1.79320586	      4.62554064	     92.37460002	      0.48041505	      0.93425612	     -0.64937062	     -2.44138469	      1.65438543	     -3.68992909	    -11.06561951	      4.45901342	      4.86822072	     -4.23385042	     -5.73977686	     -9.45619227	     -7.20443184	      5.46403207	      1.93549148	     -4.55712455	     -1.93073399	      0.58936101
      2.68000000	      1.79196741	      4.57574351	     92.31878300	      0.47988030	      0.93425146	     -0.64975996	     -2.42417839	      1.60423976	     -3.74175943	    -11.03598531	      4.43463156	      4.88909975	     -4.04900230	     -5.71361299	     -9.53334114	     -7.53253480	      5.54396984	      1.90122855	     -4.57584969	     -1.89317795	      0.60127841
      2.69000000	      1.84843928	      4.44107171	     92.23002934	      0.47936801	      0.93409499	     -0.65014063	     -2.30830309	      1.60942666	     -3.76324922	    -11.00947556	      4.42355307	      4.94919342	     -3.78106965	     -5.74352282	     -9.62482646	     -7.85425466	      5.71988473	      1.81439659	     -4.48499666	     -1.78385374	      0.70193459
      2.70000000	      1.84612276	      4.40204260	     92.13565044	      0.47884617	      0.93407492	     -0.65054903	     -2.33145379	      1.55393279	     -3.76559095	    -10.92466775	      4.40910290	      4.97876173	     -3.65085889	     -5.70887899	     -9.73562807	     -8.11726263	      5.78557017	      1.78919350	     -4.50784720	     -1.73561933	      0.77055455
      2.71000000	      1.88100598	      4.34570714	     91.99318111	      0.47839478	      0.93400438	     -0.65098348	     -2.34062926	      1.53795852	     -3.71147944	    -10.82484107	      4.39317151	      5.03267778	     -3.52338139	     -5.71298289	     -9.91084764	     -8.36119895	      5.91908313	      1.74575860	     -4.49995320	     -1.64303584	      0.90738069
      2.72000000	      1.90994733	      4.29309015	     91.83200078	      0.47796158	      0.93393097	     -0.65145194	     -2.36625206	      1.51499090	     -3.62557264	    -10.70386565	      4.37547926	      5.09105832	     -3.43328103	     -5.70619515	    -10.08735735	     -8.55199035	      6.02585683	      1.70946586	     -4.48837597	     -1.55319552	      1.06135265
      2.73000000	      1.93784608	      4.25066223	     91.64701012	      0.47756990	      0.93386103	     -0.65194708	     -2.41010701	      1.49162575	     -3.51069794	    -10.57014610	      4.35900339	      5.15321196	     -3.37803707	     -5.69742685	    -10.28852987	     -8.70971546	      6.13176304	      1.68060690	     -4.48225444	     -1.46445670	      1.22997078
      2.74000000	      1.96536973	      4.21519861	     91.44145147	      0.47721525	      0.93379290	     -0.65247357	     -2.46641963	      1.46852582	     -3.36557446	    -10.42855888	      4.34073664	      5.21789437	     -3.35399963	     -5.68653789	    -10.50395628	     -8.83394580	      6.23161052	      1.65846209	     -4.47614150	     -1.37568739	      1.41112115
      2.75000000	      1.98832858	      4.18416795	     91.22433307	      0.47688995	      0.93372601	     -0.65302724	     -2.52985675	      1.44126512	     -3.20556886	    -10.28435682	      4.32492216	      5.27890470	     -3.35402919	     -5.66965963	    -10.72316759	     -8.92952310	      6.32402614	      1.64391970	     -4.46820473	     -1.29261145	      1.58935986
      2.76000000	      2.00821109	      4.15417709	     90.99725576	      0.47659560	      0.93365804	     -0.65360291	     -2.59188854	      1.41176953	     -3.02975748	    -10.14685087	      4.31232385	      5.33511046	     -3.37144310	     -5.64818473	    -10.94533898	     -9.00047539	      6.41074128	      1.63395426	     -4.45539063	     -1.21416682	      1.76203719
      2.77000000	      2.02443021	      4.12288729	     90.76404732	      0.47634110	      0.93358578	     -0.65419347	     -2.64550561	      1.38042172	     -2.84712931	    -10.02323664	      4.30531497	      5.38521986	     -3.40046000	     -5.62237416	    -11.16247718	     -9.05116713	      6.48892345	      1.62612176	     -4.43661667	     -1.14488811	      1.92156338
      2.78000000	      2.03299325	      4.08931017	     90.53600536	      0.47607299	      0.93350913	     -0.65479283	     -2.68819259	      1.33997562	     -2.65678360	     -9.91896990	      4.30656038	      5.42717356	     -3.43522509	     -5.58568603	    -11.37498530	     -9.08408937	      6.56205653	      1.61867711	     -4.41014182	     -1.07872361	      2.06086426
      2.79000000	      2.03710970	      4.05314024	     90.30443968	      0.47584865	      0.93342844	     -0.65539273	     -2.71509902	      1.29791652	     -2.46159665	     -9.83777001	      4.31713261	      5.46296866	     -3.47605003	     -5.54424130	    -11.58245906	     -9.10260519	      6.62614351	      1.60898932	     -4.38030618	     -1.02459837	      2.18268037
      2.80000000	      2.03373327	      4.01396736	     90.07800619	      0.47563773	      0.93334202	     -0.65599281	     -2.72773269	      1.24953387	     -2.26715103	     -9.77710632	      4.33973074	      5.49238926	     -3.52114474	     -5.49353291	    -11.78494501	     -9.10386041	      6.68362333	      1.59662877	     -4.34573521	     -0.98118026	      2.27959506
      2.81000000	      2.02303131	      3.97461697	     89.86277813	      0.47542271	      0.93325444	     -0.65659965	     -2.72675856	      1.19422512	     -2.07750855	     -9.74617003	      4.37247166	      5.51478053	     -3.57316504	     -5.43366748	    -11.97838186	     -9.08670817	      6.73400696	      1.58199768	     -4.30744345	     -0.94452413	      2.33633186
      2.82000000	      2.00595747	      3.93774342	     89.65288209	      0.47522053	      0.93316972	     -0.65717684	     -2.71091989	      1.13438408	     -1.88212291	     -9.74506763	      4.41481066	      5.53258180	     -3.63059390	     -5.36622556	    -12.16633349	     -9.05787268	      6.77584000	      1.56466734	     -4.27840381	     -0.91691474	      2.36789698
      2.83000000	      1.98381945	      3.90469868	     89.45555488	      0.47501929	      0.93308581	     -0.65773607	     -2.68630618	      1.07067604	     -1.69361783	     -9.76730530	      4.46462625	      5.54641214	     -3.69403864	     -5.29344716	    -12.34253923	     -9.01724838	      6.81036484	      1.54664320	     -4.25664084	     -0.89602196	      2.36889203
      2.84000000	      1.95860045	      3.87648229	     89.26871004	      0.47482730	      0.93300834	     -0.65827374	     -2.65584569	      1.00581315	     -1.50978006	     -9.80917127	      4.52066971	      5.55819504	     -3.76393951	     -5.21812510	    -12.51098624	     -8.96656858	      6.83756100	      1.52843711	     -4.24548331	     -0.88134165	      2.34604040
      2.85000000	      1.93203895	      3.85402851	     89.09251239	      0.47465090	      0.93293569	     -0.65878917	     -2.62325843	      0.94195619	     -1.33180287	     -9.86506125	      4.58033885	      5.56949892	     -3.84074744	     -5.14288147	    -12.67319514	     -8.90618461	      6.85854362	      1.51055524	     -4.24611529	     -0.87210807	      2.30019250
      2.86000000	      1.90637072	      3.83708077	     88.93355531	      0.47447558	      0.93287044	     -0.65928709	     -2.59349482	      0.88184726	     -1.16639737	     -9.92652893	      4.63989484	      5.58091640	     -3.92199712	     -5.06958435	    -12.82285301	     -8.83942841	      6.87712656	      1.49531977	     -4.25770633	     -0.86464332	      2.22959157
      2.87000000	      1.88391944	      3.82573423	     88.79000534	      0.47431356	      0.93281269	     -0.65977070	     -2.56931625	      0.82761313	     -1.01446686	     -9.98881302	      4.69578905	      5.59372095	     -4.00723749	     -5.00275752	    -12.96243562	     -8.76879823	      6.89107298	      1.48213386	     -4.27987713	     -0.85793922	      2.14059659
      2.88000000	      1.86435605	      3.81751243	     88.66471922	      0.47415607	      0.93275785	     -0.66023557	     -2.55319292	      0.77886263	     -0.87431639	    -10.04248986	      4.74966709	      5.60824928	     -4.09123929	     -4.94160126	    -13.08950899	     -8.69647638	      6.90721505	      1.47264673	     -4.31049866	     -0.85188910	      2.03276870
